REM MD5 36f36e2e48b5418d33607d827cec4345
FILE "Tommi Maekinen Rally (Europe) (En,Fr,De,Es,Fi) (Demo).bin" BINARY
  TRACK 01 MODE2/2352
    INDEX 01 00:00:00
  TRACK 02 AUDIO
    INDEX 00 01:19:05
    INDEX 01 01:21:05
  TRACK 03 AUDIO
    INDEX 00 05:21:06
    INDEX 01 05:23:06
REM LEADOUT 11:50:30
